<svg xmlns="http://www.w3.org/2000/svg" viewBox="0 0 141.73 107.717">
<g>
	<rect x="4.253" y="4.253" width="127.56" height="99.213"/>
	<rect x="131.812" y="4.253" fill="#F39800" width="5.669" height="99.213"/>
</g>
<g>
	<g>
		<path fill="#FFFFFF" d="M11.338,96.116V73.242h7.154c2.153,0,3.871,0.588,5.152,1.766s1.922,2.758,1.922,4.742
			c0,1.329-0.328,2.507-0.985,3.531s-1.556,1.771-2.697,2.231c-1.141,0.464-2.778,0.696-4.91,0.696h-2.39v9.907H11.338z
			 M17.928,76.152h-3.343v7.145h3.537c1.313,0,2.326-0.313,3.036-0.939c0.71-0.626,1.066-1.523,1.066-2.689
			C22.224,77.323,20.792,76.152,17.928,76.152z"/>
		<path fill="#FFFFFF" d="M39.448,72.946c3.485,0,6.388,1.118,8.708,3.353c2.318,2.235,3.478,5.036,3.478,8.405
			c0,3.368-1.169,6.156-3.51,8.364c-2.34,2.206-5.292,3.31-8.853,3.31c-3.4,0-6.232-1.104-8.497-3.31
			c-2.265-2.208-3.397-4.975-3.397-8.299c0-3.413,1.14-6.235,3.421-8.471C33.078,74.064,35.961,72.946,39.448,72.946z
			 M39.577,76.055c-2.582,0-4.704,0.817-6.366,2.452s-2.493,3.722-2.493,6.263c0,2.464,0.833,4.514,2.501,6.148
			s3.754,2.451,6.261,2.451c2.517,0,4.617-0.832,6.301-2.501c1.684-1.667,2.525-3.744,2.525-6.229c0-2.42-0.842-4.455-2.525-6.108
			C44.097,76.88,42.029,76.055,39.577,76.055z"/>
		<path fill="#FFFFFF" d="M55.702,96.116V73.273h5.651c2.282,0,4.094,0.573,5.434,1.717c1.341,1.146,2.011,2.694,2.011,4.645
			c0,1.33-0.329,2.481-0.985,3.45c-0.657,0.972-1.598,1.694-2.826,2.175c0.721,0.479,1.426,1.134,2.115,1.962
			c0.689,0.828,1.658,2.273,2.907,4.334c0.786,1.297,1.414,2.271,1.89,2.926l1.193,1.635H69.25l-0.984-1.504
			c-0.032-0.054-0.097-0.146-0.193-0.277l-0.629-0.9l-1-1.668l-1.081-1.784c-0.667-0.938-1.277-1.685-1.832-2.239
			c-0.556-0.556-1.057-0.956-1.504-1.199c-0.448-0.246-1.199-0.369-2.255-0.369h-0.841v9.941H55.702z M59.901,76.055h-0.969v7.211
			h1.228c1.636,0,2.759-0.143,3.367-0.426c0.608-0.284,1.082-0.712,1.42-1.283c0.34-0.572,0.509-1.225,0.509-1.954
			c0-0.719-0.189-1.371-0.566-1.954c-0.377-0.582-0.906-0.995-1.59-1.234C62.616,76.174,61.483,76.055,59.901,76.055z"/>
		<path fill="#FFFFFF" d="M70.688,73.242h18.846v2.91h-7.865v19.964h-3.245V76.152h-7.736V73.242z"/>
		<path fill="#FFFFFF" d="M96.48,73.143h2.269l10.117,22.974h-3.307l-3.007-6.768h-9.626l-2.818,6.768h-3.32L96.48,73.143z
			 M101.226,86.437l-3.642-8.272l-3.375,8.272H101.226z"/>
		<path fill="#FFFFFF" d="M111.336,73.273h3.23v19.868h10.158v2.975h-13.389V73.273z"/>
	</g>
	<g>
		<path fill="#F39800" d="M27.246,42.36h3.23v22.846h-3.23v-9.941H14.568v9.941h-3.23V42.36h3.23v9.878h12.678V42.36z"/>
		<path fill="#F39800" d="M42.654,42.229h2.27L55.04,65.206h-3.306l-3.007-6.771h-9.625l-2.819,6.771h-3.319L42.654,42.229z
			 M47.4,55.525l-3.641-8.274l-3.375,8.274H47.4z"/>
		<path fill="#F39800" d="M75.435,42.36h3.069v22.846h-2.778L60.644,47.612v17.594h-3.036V42.36h2.616l15.211,17.744V42.36z"/>
		<path fill="#F39800" d="M83.331,42.36h3.23v19.868h10.159v2.978h-13.39V42.36z"/>
		<path fill="#F39800" d="M99.579,42.36h3.229v22.846h-3.229V42.36z"/>
	</g>
	<g>
		<path fill="#FFFFFF" d="M11.338,11.339h18.847v2.911H22.32v19.964h-3.246V14.25h-7.736V11.339z"/>
		<path fill="#FFFFFF" d="M49.146,11.372h3.23v22.842h-3.23v-9.941H36.468v9.941h-3.23V11.372h3.23v9.876h12.678V11.372z"/>
		<path fill="#FFFFFF" d="M57.35,11.372h12.788v2.911h-9.559v6.965h9.236v2.927h-9.236v7.096h9.865v2.911H57.35V11.372z"/>
	</g>
</g>
</svg>
